<?xml version="1.0" encoding="UTF-8" standalone="no"?>
<svg width="240px" height="240px" viewBox="0 0 240 240" version="1.1" xmlns="http://www.w3.org/2000/svg" xmlns:xlink="http://www.w3.org/1999/xlink">
    <!-- Generator: Sketch 42 (36781) - http://www.bohemiancoding.com/sketch -->
    <title>iPhone 7</title>
    <desc>Created with Sketch.</desc>
    <defs></defs>
    <g id="Page-1" stroke="none" stroke-width="1" fill="none" fill-rule="evenodd">
        <g id="iPhone-7" fill-rule="nonzero">
            <g id="logo" transform="translate(0.000000, 173.000000)">
                <g id="Group">
                    <g transform="translate(144.000000, 0.000000)" fill="#FFFFFF">
                        <path d="M23.24,9.833 L19.64,9.833 L19.64,6.82 L23.24,6.82 L23.24,2.35 L26.73,2.35 L26.73,6.82 L32.47,6.82 L32.47,9.833 L26.73,9.833 L26.73,18.907 C26.73,21.177 27.362,22.367 30.27,22.367 C31.383,22.367 32.632,22.047 32.632,22.047 L32.632,25.187 C31.42,25.352 30.537,25.45 29.162,25.45 C23.667,25.45 23.24,21.49 23.24,19.32 L23.24,9.832 L23.24,9.833 Z M69.587,6.8 L73.159,6.8 L73.159,25.494 L69.586,25.494 L69.587,6.8 Z M79.472,16.01 C79.472,21.102 83.665,22.37 85.656,22.37 C89.45,22.37 92.128,20.225 92.128,15.937 C92.128,11.647 89.083,9.681 85.618,9.681 C83.653,9.681 79.472,10.839 79.472,16.011 L79.472,16.01 Z M75.839,15.972 C75.839,8.942 81.519,6.555 85.469,6.555 C89.949,6.555 92.126,9.125 92.126,9.125 L92.311,6.802 L95.575,6.802 L95.575,25.53 L92.305,25.53 L92.125,23.056 C92.125,23.056 89.889,25.536 85.428,25.536 C80.948,25.536 75.838,22.936 75.838,15.972 L75.839,15.972 Z" id="Shape"></path>
                        <ellipse id="Oval" cx="71.373" cy="2.486" rx="2.337" ry="2.337"></ellipse>
                        <path d="M66.978,10.014 L66.978,6.85 C63.45,6.526 60.974,7.37 59.045,9.388 L58.857,6.808 L55.467,6.808 L55.467,25.518 L59.044,25.518 L59.044,15.823 C59.044,13.121 61.222,9.691 66.978,10.013 L66.978,10.014 Z M33.33,16.044 C33.33,10.196 37.648,6.441 43.423,6.441 C49.157,6.441 53.097,10.631 53.097,15.721 C53.097,15.721 53.097,16.516 53.023,17.237 L37.046,17.307 C37.198,20.194 40.531,22.367 43.972,22.367 C47.678,22.367 49.874,20.077 49.874,20.077 L52.431,22.324 C49.837,24.814 47.007,25.572 43.974,25.572 C37.674,25.572 33.33,21.892 33.33,16.19 L33.33,16.046 L33.33,16.044 Z M49.173,14.438 C49.173,11.896 46.613,9.778 43.471,9.778 C40.108,9.778 37.325,11.854 37.101,14.438 L49.174,14.438 L49.173,14.438 Z M11.993,14.36 C8.396,13.717 4.86,13.268 4.86,11.59 C4.86,10.497 5.944,9.537 9.092,9.537 C11.432,9.537 14.132,10.077 14.862,11.735 L18.179,10.343 C16.909,7.793 13.156,6.568 8.842,6.568 C5.072,6.568 1.024,7.996 1.024,11.813 C1.024,15.118 4.034,16.147 8.994,17.081 C12.31,17.706 15.367,18.021 15.367,19.808 C15.367,20.938 13.863,22.383 10.104,22.383 C7.431,22.383 4.736,21.821 3.914,19.919 L0.696,21.269 C2.014,24.207 5.514,25.729 9.568,25.729 C17.662,25.729 19.226,21.876 19.226,19.691 C19.226,16.049 15.604,15.007 11.991,14.361 L11.993,14.36 Z" id="Shape"></path>
                    </g>
                    <path d="M53.03,9.68 C49.563,9.68 46.52,11.646 46.52,15.937 C46.52,20.227 49.196,22.369 52.993,22.369 C54.979,22.369 59.175,21.562 59.175,16.009 C59.175,10.454 54.991,9.679 53.029,9.679 L53.03,9.68 Z M53.216,25.535 C48.739,25.535 46.521,22.689 46.521,22.689 L46.521,30.565 L43.071,30.565 L43.071,6.803 L46.338,6.803 L46.523,9.126 C46.523,9.126 48.696,6.556 53.179,6.556 C57.126,6.556 62.809,8.568 62.809,15.973 C62.809,23.378 57.693,25.535 53.217,25.535 L53.216,25.535 Z M79.88,16.01 C79.88,21.102 84.075,22.37 86.064,22.37 C89.86,22.37 92.534,20.225 92.534,15.937 C92.534,11.647 89.494,9.681 86.027,9.681 C84.063,9.681 79.881,10.839 79.881,16.011 L79.88,16.01 Z M76.25,15.972 C76.25,8.942 81.93,6.555 85.88,6.555 C90.36,6.555 92.534,9.125 92.534,9.125 L92.719,6.802 L95.985,6.802 L95.985,25.53 L92.727,25.53 L92.534,23.056 C92.534,23.056 90.298,25.536 85.838,25.536 C81.36,25.536 76.248,22.936 76.248,15.972 L76.25,15.972 Z M76.51,10.014 L76.51,6.85 C72.982,6.526 70.504,7.37 68.573,9.388 L68.39,6.808 L65,6.808 L65,25.518 L68.573,25.518 L68.573,15.823 C68.573,13.121 70.755,9.691 76.509,10.013 L76.51,10.014 Z M11.62,14.36 C8.022,13.717 4.487,13.268 4.487,11.59 C4.487,10.497 5.567,9.537 8.717,9.537 C11.057,9.537 13.757,10.077 14.489,11.735 L17.806,10.343 C16.536,7.793 12.782,6.568 8.47,6.568 C4.7,6.568 0.65,7.996 0.65,11.813 C0.65,15.118 3.66,16.147 8.624,17.081 C11.936,17.706 14.996,18.021 14.996,19.808 C14.996,20.938 13.491,22.383 9.733,22.383 C7.059,22.383 4.363,21.821 3.54,19.919 L0.325,21.269 C1.641,24.207 5.142,25.729 9.195,25.729 C17.29,25.729 18.855,21.876 18.855,19.691 C18.855,16.049 15.233,15.007 11.619,14.361 L11.62,14.36 Z M30.723,6.556 C25.943,6.556 20.283,8.944 20.283,15.973 C20.283,22.935 25.377,25.64 30.723,25.64 C36.073,25.64 41.161,22.936 41.161,15.973 C41.161,8.943 35.506,6.556 30.724,6.556 L30.723,6.556 Z M30.723,22.369 C27.785,22.369 23.917,21.099 23.917,16.009 C23.917,10.837 28.207,9.785 30.723,9.785 C33.24,9.785 37.529,10.837 37.529,16.009 C37.527,21.101 33.659,22.369 30.722,22.369 L30.723,22.369 Z" id="Shape" fill="#FFFFFF"></path>
                    <path d="M130.423,24.92 C130.225,25.05 129.986,25.2 129.769,25.324 L129.701,25.364 L129.768,25.371 C134.038,26.545 138.264,26.501 139.078,23.835 C140.128,20.395 133.335,16.705 130.128,14.945 C129.441,14.569 129.143,14.803 129.581,15.308 C131.605,17.64 134.488,22.226 130.421,24.922 L130.423,24.92 Z" id="Shape" fill="#EF7D00"></path>
                    <path d="M129.706,25.36 C129.706,25.36 124.329,28.74 114.838,28.74 C111.161,28.74 108.066,28.178 106.758,26.89 C105.378,25.535 104.632,23.248 104.632,21.15 C104.632,19.35 105.379,17.837 106.937,17.837 C110.937,17.837 123.403,24.177 129.707,25.361 L129.706,25.36 Z" id="Shape" fill="#FFFFFF"></path>
                    <path d="M111.785,5.763 C111.982,5.633 112.222,5.483 112.438,5.359 L112.504,5.319 L112.438,5.311 C108.168,4.139 103.938,4.183 103.126,6.848 C102.076,10.288 108.871,13.978 112.076,15.738 C112.766,16.112 113.062,15.878 112.626,15.375 C110.601,13.041 107.716,8.455 111.786,5.761 L111.785,5.763 Z" id="Shape" fill="#EF7D00"></path>
                    <path d="M112.5,5.322 C112.5,5.322 117.88,1.942 127.37,1.942 C131.046,1.942 134.14,2.505 135.45,3.792 C136.83,5.15 137.576,7.432 137.576,9.534 C137.576,11.334 136.829,12.847 135.271,12.847 C131.271,12.847 118.807,6.507 112.501,5.322 L112.5,5.322 Z" id="Shape" fill="#FFFFFF"></path>
                </g>
            </g>
            <g id="logo" transform="translate(49.000000, 36.000000)">
                <g id="Group">
                    <path d="M107.47637,90.0442857 C106.700368,90.5526786 105.763678,91.1392857 104.91321,91.6242143 L104.646704,91.7806429 L104.909291,91.8080179 C121.644298,96.3991964 138.20686,96.227125 141.397093,85.8011607 C145.512259,72.3483036 118.889097,57.9177679 106.320205,51.0349107 C103.627711,49.5644821 102.459787,50.4795893 104.176399,52.4545 C112.108871,61.5742857 123.40794,79.5088214 107.468532,90.0521071 L107.47637,90.0442857 Z" id="Shape" fill="#EF7D00"></path>
                    <path d="M104.6663,91.765 C104.6663,91.765 83.5927325,104.983214 46.3955538,104.983214 C31.9846355,104.983214 19.8546947,102.785393 14.728374,97.7483929 C9.3198705,92.449375 6.39614325,83.5055714 6.39614325,75.3008929 C6.39614325,68.2616071 9.3237897,62.3446964 15.4299118,62.3446964 C31.1067335,62.3446964 79.9635483,87.138625 104.670219,91.7689107 L104.6663,91.765 Z" id="Shape" fill="#FFFFFF"></path>
                    <path d="M34.4302197,15.1267321 C35.2023031,14.6183393 36.1429124,14.0317321 36.9894608,13.5468036 L37.2481284,13.390375 L36.9894608,13.3590893 C20.2544536,8.77573214 3.67621469,8.94780357 0.493819883,19.3698571 C-3.62134581,32.8227143 23.009655,47.25325 35.5707084,54.1361071 C38.2749602,55.5987143 39.435045,54.6836071 37.7262714,52.7165179 C29.7898804,43.5889107 18.4829728,25.654375 34.4341389,15.1189107 L34.4302197,15.1267321 Z" id="Shape" fill="#EF7D00"></path>
                    <path d="M95.5110362,0.183892857 C109.918035,0.183892857 122.044057,2.385625 127.178216,7.41871429 C132.58672,12.7294643 135.510447,21.6537143 135.510447,29.8740357 C135.510447,36.9133214 132.5828,42.8302321 126.476678,42.8302321 C110.799857,42.8302321 61.9508801,18.0363036 37.2363707,13.4021071 C37.2324515,13.4021071 58.3177767,0.183892857 95.5110362,0.183892857 Z" id="Shape" fill="#FFFFFF"></path>
                </g>
            </g>
        </g>
    </g>
</svg>