<svg xmlns="http://www.w3.org/2000/svg" width="240" height="31" viewBox="0 0 240 31"><g fill="#1A1D1D"><path d="M167.24 9.833h-3.6V6.82h3.6V2.35h3.49v4.47h5.74v3.013h-5.74v9.074c0 2.27.632 3.46 3.54 3.46 1.113 0 2.362-.32 2.362-.32v3.14c-1.212.165-2.095.263-3.47.263-5.495 0-5.922-3.96-5.922-6.13V9.832zM213.587 6.8h3.572v18.694h-3.573zM223.472 16.01c0 5.092 4.193 6.36 6.184 6.36 3.794 0 6.472-2.145 6.472-6.433 0-4.29-3.045-6.256-6.51-6.256-1.965 0-6.146 1.158-6.146 6.33zm-3.633-.038c0-7.03 5.68-9.417 9.63-9.417 4.48 0 6.657 2.57 6.657 2.57l.185-2.323h3.264V25.53h-3.27l-.18-2.474s-2.236 2.48-6.697 2.48c-4.48 0-9.59-2.6-9.59-9.564z"/><circle cx="215.373" cy="2.486" r="2.337"/><path d="M210.978 10.014V6.85c-3.528-.324-6.004.52-7.933 2.538l-.188-2.58h-3.39v18.71h3.577v-9.695c0-2.702 2.178-6.132 7.934-5.81zM177.33 16.044c0-5.848 4.318-9.603 10.093-9.603 5.734 0 9.674 4.19 9.674 9.28 0 0 0 .795-.074 1.516l-15.977.07c.152 2.887 3.485 5.06 6.926 5.06 3.706 0 5.902-2.29 5.902-2.29l2.557 2.247c-2.594 2.49-5.424 3.248-8.457 3.248-6.3 0-10.644-3.68-10.644-9.382v-.144zm15.843-1.606c0-2.542-2.56-4.66-5.702-4.66-3.363 0-6.146 2.076-6.37 4.66h12.073zM155.993 14.36c-3.597-.643-7.133-1.092-7.133-2.77 0-1.093 1.084-2.053 4.232-2.053 2.34 0 5.04.54 5.77 2.198l3.317-1.392c-1.27-2.55-5.023-3.775-9.337-3.775-3.77 0-7.818 1.428-7.818 5.245 0 3.305 3.01 4.334 7.97 5.268 3.316.625 6.373.94 6.373 2.727 0 1.13-1.504 2.575-5.263 2.575-2.673 0-5.368-.562-6.19-2.464l-3.218 1.35c1.318 2.938 4.818 4.46 8.872 4.46 8.094 0 9.658-3.853 9.658-6.038 0-3.642-3.622-4.684-7.235-5.33z"/></g><path fill="#1A1D1D" d="M53.03 9.68c-3.467 0-6.51 1.966-6.51 6.257 0 4.29 2.676 6.432 6.473 6.432 1.986 0 6.182-.807 6.182-6.36 0-5.555-4.184-6.33-6.146-6.33zm.186 15.855c-4.477 0-6.695-2.846-6.695-2.846v7.876h-3.45V6.803h3.267l.185 2.323s2.173-2.57 6.656-2.57c3.947 0 9.63 2.012 9.63 9.417s-5.116 9.562-9.592 9.562zM79.88 16.01c0 5.092 4.195 6.36 6.184 6.36 3.796 0 6.47-2.145 6.47-6.433 0-4.29-3.04-6.256-6.507-6.256-1.964 0-6.146 1.158-6.146 6.33zm-3.63-.038c0-7.03 5.68-9.417 9.63-9.417 4.48 0 6.654 2.57 6.654 2.57l.185-2.323h3.266V25.53h-3.258l-.193-2.474s-2.236 2.48-6.696 2.48c-4.478 0-9.59-2.6-9.59-9.564zM76.51 10.014V6.85c-3.528-.324-6.006.52-7.937 2.538l-.183-2.58H65v18.71h3.573v-9.695c0-2.702 2.182-6.132 7.936-5.81zM11.62 14.36c-3.598-.643-7.133-1.092-7.133-2.77 0-1.093 1.08-2.053 4.23-2.053 2.34 0 5.04.54 5.772 2.198l3.317-1.392c-1.27-2.55-5.024-3.775-9.336-3.775-3.77 0-7.82 1.428-7.82 5.245 0 3.305 3.01 4.334 7.974 5.268 3.312.625 6.372.94 6.372 2.727 0 1.13-1.505 2.575-5.263 2.575-2.674 0-5.37-.562-6.193-2.464l-3.215 1.35c1.316 2.938 4.817 4.46 8.87 4.46 8.095 0 9.66-3.853 9.66-6.038 0-3.642-3.622-4.684-7.236-5.33zM30.723 6.556c-4.78 0-10.44 2.388-10.44 9.417 0 6.962 5.094 9.667 10.44 9.667 5.35 0 10.438-2.704 10.438-9.667 0-7.03-5.655-9.417-10.437-9.417zm0 15.813c-2.938 0-6.806-1.27-6.806-6.36 0-5.172 4.29-6.224 6.806-6.224 2.517 0 6.806 1.052 6.806 6.224-.002 5.092-3.87 6.36-6.807 6.36z"/><path fill="#EF7D00" d="M130.423 24.92c-.198.13-.437.28-.654.404l-.068.04.067.007c4.27 1.174 8.496 1.13 9.31-1.536 1.05-3.44-5.743-7.13-8.95-8.89-.687-.376-.985-.142-.547.363 2.024 2.332 4.907 6.918.84 9.614z"/><path fill="#CF022B" d="M129.706 25.36s-5.377 3.38-14.868 3.38c-3.677 0-6.772-.562-8.08-1.85-1.38-1.355-2.126-3.642-2.126-5.74 0-1.8.747-3.313 2.305-3.313 4 0 16.466 6.34 22.77 7.524z"/><path fill="#EF7D00" d="M111.785 5.763c.197-.13.437-.28.653-.404l.066-.04-.066-.008c-4.27-1.172-8.5-1.128-9.312 1.537-1.05 3.44 5.745 7.13 8.95 8.89.69.374.986.14.55-.363-2.025-2.334-4.91-6.92-.84-9.614z"/><path fill="#CF022B" d="M112.5 5.322s5.38-3.38 14.87-3.38c3.676 0 6.77.563 8.08 1.85 1.38 1.358 2.126 3.64 2.126 5.742 0 1.8-.747 3.313-2.305 3.313-4 0-16.464-6.34-22.77-7.525z"/></svg>